<?xml version="1.0" standalone="no"?>
<!DOCTYPE svg PUBLIC "-//W3C//DTD SVG 1.1//EN" "http://www.w3.org/Graphics/SVG/1.1/DTD/svg11.dtd">
<svg viewBox="0 0 584.000000 408.000000" version="1.1" xmlns="http://www.w3.org/2000/svg" xmlns:xlink="http://www.w3.org/1999/xlink">
	<polyline fill="none" stroke="rgb(229,229,229)" stroke-width="1" stroke-opacity="1" points="88.000000,54.000000 88.000000,330.000000"/>
	<polyline fill="none" stroke="rgb(229,229,229)" stroke-width="1" stroke-opacity="1" points="153.285714,54.000000 153.285714,330.000000"/>
	<polyline fill="none" stroke="rgb(229,229,229)" stroke-width="1" stroke-opacity="1" points="218.571429,54.000000 218.571429,330.000000"/>
	<polyline fill="none" stroke="rgb(229,229,229)" stroke-width="1" stroke-opacity="1" points="283.857143,54.000000 283.857143,330.000000"/>
	<polyline fill="none" stroke="rgb(229,229,229)" stroke-width="1" stroke-opacity="1" points="349.142857,54.000000 349.142857,330.000000"/>
	<polyline fill="none" stroke="rgb(229,229,229)" stroke-width="1" stroke-opacity="1" points="414.428571,54.000000 414.428571,330.000000"/>
	<polyline fill="none" stroke="rgb(229,229,229)" stroke-width="1" stroke-opacity="1" points="479.714286,54.000000 479.714286,330.000000"/>
	<polyline fill="none" stroke="rgb(229,229,229)" stroke-width="1" stroke-opacity="1" points="545.000000,54.000000 545.000000,330.000000"/>
	<polyline fill="none" stroke="rgb(229,229,229)" stroke-width="1" stroke-opacity="1" points="88.000000,330.000000 545.000000,330.000000"/>
	<polyline fill="none" stroke="rgb(229,229,229)" stroke-width="1" stroke-opacity="1" points="88.000000,295.500000 545.000000,295.500000"/>
	<polyline fill="none" stroke="rgb(229,229,229)" stroke-width="1" stroke-opacity="1" points="88.000000,261.000000 545.000000,261.000000"/>
	<polyline fill="none" stroke="rgb(229,229,229)" stroke-width="1" stroke-opacity="1" points="88.000000,226.500000 545.000000,226.500000"/>
	<polyline fill="none" stroke="rgb(229,229,229)" stroke-width="1" stroke-opacity="1" points="88.000000,192.000000 545.000000,192.000000"/>
	<polyline fill="none" stroke="rgb(229,229,229)" stroke-width="1" stroke-opacity="1" points="88.000000,157.500000 545.000000,157.500000"/>
	<polyline fill="none" stroke="rgb(229,229,229)" stroke-width="1" stroke-opacity="1" points="88.000000,123.000000 545.000000,123.000000"/>
	<polyline fill="none" stroke="rgb(229,229,229)" stroke-width="1" stroke-opacity="1" points="88.000000,88.500000 545.000000,88.500000"/>
	<polyline fill="none" stroke="rgb(229,229,229)" stroke-width="1" stroke-opacity="1" points="88.000000,54.000000 545.000000,54.000000"/>
	<polyline fill="none" stroke="rgb(0,0,0)" stroke-width="1" stroke-opacity="1" points="88.000000,330.000000 545.000000,330.000000"/>
	<polyline fill="none" stroke="rgb(0,0,0)" stroke-width="1" stroke-opacity="1" points="545.000000,330.000000 545.000000,54.000000"/>
	<polyline fill="none" stroke="rgb(0,0,0)" stroke-width="1" stroke-opacity="1" points="545.000000,54.000000 88.000000,54.000000"/>
	<polyline fill="none" stroke="rgb(0,0,0)" stroke-width="1" stroke-opacity="1" points="88.000000,54.000000 88.000000,330.000000"/>
	<polyline fill="none" stroke="rgb(0,0,0)" stroke-width="1" stroke-opacity="1" points="88.000000,330.000000 88.000000,336.000000"/>
	<polyline fill="none" stroke="rgb(0,0,0)" stroke-width="1" stroke-opacity="1" points="153.285714,330.000000 153.285714,336.000000"/>
	<polyline fill="none" stroke="rgb(0,0,0)" stroke-width="1" stroke-opacity="1" points="218.571429,330.000000 218.571429,336.000000"/>
	<polyline fill="none" stroke="rgb(0,0,0)" stroke-width="1" stroke-opacity="1" points="283.857143,330.000000 283.857143,336.000000"/>
	<polyline fill="none" stroke="rgb(0,0,0)" stroke-width="1" stroke-opacity="1" points="349.142857,330.000000 349.142857,336.000000"/>
	<polyline fill="none" stroke="rgb(0,0,0)" stroke-width="1" stroke-opacity="1" points="414.428571,330.000000 414.428571,336.000000"/>
	<polyline fill="none" stroke="rgb(0,0,0)" stroke-width="1" stroke-opacity="1" points="479.714286,330.000000 479.714286,336.000000"/>
	<polyline fill="none" stroke="rgb(0,0,0)" stroke-width="1" stroke-opacity="1" points="545.000000,330.000000 545.000000,336.000000"/>
	<polyline fill="none" stroke="rgb(0,0,0)" stroke-width="1" stroke-opacity="1" points="153.285714,330.000000 153.285714,339.600000"/>
	<text x="153.286" y="353.5" fill="rgb(0,0,0)" dominant-baseline="central" font-size="17" font-family="Arial" text-anchor="middle">500</text>
	<polyline fill="none" stroke="rgb(0,0,0)" stroke-width="1" stroke-opacity="1" points="283.857143,330.000000 283.857143,339.600000"/>
	<text x="283.857" y="353.5" fill="rgb(0,0,0)" dominant-baseline="central" font-size="17" font-family="Arial" text-anchor="middle">520</text>
	<polyline fill="none" stroke="rgb(0,0,0)" stroke-width="1" stroke-opacity="1" points="414.428571,330.000000 414.428571,339.600000"/>
	<text x="414.429" y="353.5" fill="rgb(0,0,0)" dominant-baseline="central" font-size="17" font-family="Arial" text-anchor="middle">540</text>
	<polyline fill="none" stroke="rgb(0,0,0)" stroke-width="1" stroke-opacity="1" points="545.000000,330.000000 545.000000,339.600000"/>
	<text x="545" y="353.5" fill="rgb(0,0,0)" dominant-baseline="central" font-size="17" font-family="Arial" text-anchor="middle">560</text>
	<polyline fill="none" stroke="rgb(0,0,0)" stroke-width="1" stroke-opacity="1" points="82.000000,330.000000 88.000000,330.000000"/>
	<polyline fill="none" stroke="rgb(0,0,0)" stroke-width="1" stroke-opacity="1" points="82.000000,295.500000 88.000000,295.500000"/>
	<polyline fill="none" stroke="rgb(0,0,0)" stroke-width="1" stroke-opacity="1" points="82.000000,261.000000 88.000000,261.000000"/>
	<polyline fill="none" stroke="rgb(0,0,0)" stroke-width="1" stroke-opacity="1" points="82.000000,226.500000 88.000000,226.500000"/>
	<polyline fill="none" stroke="rgb(0,0,0)" stroke-width="1" stroke-opacity="1" points="82.000000,192.000000 88.000000,192.000000"/>
	<polyline fill="none" stroke="rgb(0,0,0)" stroke-width="1" stroke-opacity="1" points="82.000000,157.500000 88.000000,157.500000"/>
	<polyline fill="none" stroke="rgb(0,0,0)" stroke-width="1" stroke-opacity="1" points="82.000000,123.000000 88.000000,123.000000"/>
	<polyline fill="none" stroke="rgb(0,0,0)" stroke-width="1" stroke-opacity="1" points="82.000000,88.500000 88.000000,88.500000"/>
	<polyline fill="none" stroke="rgb(0,0,0)" stroke-width="1" stroke-opacity="1" points="82.000000,54.000000 88.000000,54.000000"/>
	<rect fill="none" stroke="none" stroke-dasharray="none" stroke-width="1" stroke-opacity="1" x="-2" y="284.5" width="78" height="22"/>
	<polyline fill="none" stroke="rgb(0,0,0)" stroke-width="1" stroke-opacity="1" points="78.400000,295.500000 88.000000,295.500000"/>
	<text x="76" y="295.5" fill="rgb(0,0,0)" dominant-baseline="central" font-size="17" font-family="Arial" text-anchor="end">2</text>
	<polyline fill="none" stroke="rgb(0,0,0)" stroke-width="1" stroke-opacity="1" points="78.400000,226.500000 88.000000,226.500000"/>
	<text x="76" y="226.5" fill="rgb(0,0,0)" dominant-baseline="central" font-size="17" font-family="Arial" text-anchor="end">4</text>
	<polyline fill="none" stroke="rgb(0,0,0)" stroke-width="1" stroke-opacity="1" points="78.400000,157.500000 88.000000,157.500000"/>
	<text x="76" y="157.5" fill="rgb(0,0,0)" dominant-baseline="central" font-size="17" font-family="Arial" text-anchor="end">6</text>
	<polyline fill="none" stroke="rgb(0,0,0)" stroke-width="1" stroke-opacity="1" points="78.400000,88.500000 88.000000,88.500000"/>
	<text x="76" y="88.5" fill="rgb(0,0,0)" dominant-baseline="central" font-size="17" font-family="Arial" text-anchor="end">8</text>
	<text x="39" y="192" fill="rgb(0,0,0)" dominant-baseline="central" transform="rotate(-90 39,192)" font-size="17" font-family="Arial" text-anchor="middle">[kPa]</text>
	<text x="316.5" y="382" fill="rgb(0,0,0)" dominant-baseline="central" font-size="17" font-family="Arial" text-anchor="middle">Time [min]</text>
	<clipPath id="clipArea1">
		<rect x="88" y="54" width="457" height="276">
		</rect>
	</clipPath>
	<polyline fill="none" stroke="rgb(28,108,200)" stroke-width="1" stroke-opacity="1" clip-path="url(#clipArea1)" points="87.129524,301.279609 88.000000,301.279609 88.870476,301.279613 89.740952,301.279618 90.611429,301.279618 91.481905,301.279622 92.352381,301.279626 93.222857,301.279626 94.093333,301.279630 94.963810,301.279634 95.834286,301.279639 96.704762,301.279639 97.575238,301.279643 98.445714,301.279647 99.316190,301.279647 100.186667,301.279651 101.057143,301.279655 101.927619,301.279655 102.798095,301.279660 103.668571,301.279664 104.539048,301.279664 105.409524,301.279668 106.280000,301.279672 107.150476,301.279672 108.020952,301.279677 108.891429,301.279681 109.761905,301.279685 110.632381,301.279685 111.502857,301.279689 112.373333,301.279693 113.243810,301.279693 114.114286,301.279698 114.984762,301.279702 115.855238,301.279702 116.725714,301.279706 117.596190,301.279710 118.466667,301.279710 119.337143,301.279714 120.207619,301.279719 121.078095,301.279719 121.948571,301.279723 122.819048,301.279727 123.689524,301.279727 124.560000,301.279731 125.430476,301.279735 126.300952,301.279740 127.171429,301.279740 128.041905,301.279744 128.912381,301.279748 129.782857,301.279748 130.653333,301.279752 131.523810,301.279757 132.394286,301.279757 133.264762,301.279761 134.135238,301.279765 135.005714,301.279765 135.876190,301.279769 136.746667,301.279773 137.617143,301.279773 138.487619,301.279778 139.358095,301.279782 140.228571,301.279782 141.099048,301.279786 141.969524,301.279790 142.840000,301.279794 143.710476,301.279794 144.580952,301.279799 145.451429,301.279803 146.321905,301.279803 147.192381,301.279807 148.062857,301.279811 148.933333,301.279811 149.803810,301.279815 150.674286,301.279820 151.544762,301.279820 152.415238,301.279824 153.285714,301.279828 153.285714,301.279828 154.156190,289.447945 155.026667,285.560841 155.897143,283.134412 156.767619,280.955841 157.638095,278.838471 158.271613,277.312646 158.271613,277.312646 158.508571,276.743421 159.379048,274.666035 160.249524,272.598073 161.120000,270.542122 161.990476,268.496961 162.860952,266.461091 163.731429,264.432422 164.601905,262.409413 165.472381,260.391078 166.342857,258.376501 167.213333,256.364871 168.083810,254.355760 168.954286,252.348763 169.824762,250.343551 170.695238,248.340437 171.565714,246.339345 172.436190,244.340602 173.306667,242.344555 174.177143,240.351489 175.047619,238.361792 175.918095,236.375911 176.788571,234.394225 177.659048,232.417196 178.529524,230.445281 179.400000,228.478932 180.270476,226.518631 181.140952,224.564867 182.011429,222.618127 182.881905,220.678917 183.752381,218.747624 184.622857,216.824771 185.493333,214.910780 186.363810,213.006070 187.234286,211.111096 188.104762,209.226248 188.975238,207.351910 189.845714,205.488489 190.716190,203.636338 191.586667,201.795827 192.457143,199.967276 193.327619,198.151023 194.198095,196.347371 195.068571,194.556639 195.939048,192.779080 196.809524,191.014981 197.680000,189.264612 198.550476,187.528173 199.420952,185.805936 200.291429,184.098068 201.161905,182.404822 202.032381,180.726333 202.902857,179.062820 203.773333,177.414384 204.643810,175.781227 205.514286,174.163433 206.384762,172.561154 207.255238,170.974474 208.125714,169.403494 208.996190,167.848332 209.866667,166.309039 210.737143,164.785666 211.607619,163.278295 212.478095,161.786928 213.348571,160.311632 214.219048,158.852440 215.089524,157.409370 215.960000,155.982421 216.830476,154.571577 217.700952,153.176837 218.571429,151.798201 219.441905,150.435653 220.312381,149.089143 221.182857,147.758652 222.053333,146.444131 222.923810,145.145530 223.794286,143.862814 224.664762,142.595899 225.535238,141.344718 226.405714,140.109237 227.276190,138.889339 228.146667,137.684955 229.017143,136.496036 229.887619,135.322463 230.758095,134.164170 231.628571,133.021037 232.499048,131.892981 233.369524,130.779918 234.240000,129.681697 235.110476,128.598265 235.980952,127.529490 236.851429,126.475252 237.721905,125.435451 238.592381,124.409952 239.462857,123.398552 240.333333,122.401203 241.203810,121.417767 242.074286,120.448112 242.944762,119.492118 243.815238,118.549652 244.685714,117.620577 245.556190,116.704761 246.426667,115.802067 247.297143,114.912378 248.167619,114.035542 249.038095,113.171425 249.908571,112.319875 250.779048,111.480790 251.649524,110.654020 252.520000,109.839412 253.390476,109.036849 254.260952,108.246196 255.131429,107.467302 256.001905,106.700047 256.872381,105.944315 257.742857,105.199937 258.613333,104.466795 259.483810,103.744671 260.354286,103.033445 261.224762,102.333034 261.867631,101.822542 261.867631,101.822542 262.095238,101.643523 262.965714,100.968532 263.836190,100.305132 264.706667,99.651721 265.577143,99.008468 266.447619,98.372744 267.318095,97.744686 268.188571,97.126061 269.059048,96.516820 269.929524,95.916826 270.800000,95.326199 271.670476,94.744584 272.540952,94.171746 273.411429,93.607904 274.281905,93.053090 275.152381,92.507087 276.022857,91.969103 276.893333,91.439794 277.763810,90.919228 278.634286,90.407422 279.504762,89.902759 280.375238,89.406265 281.245714,88.918026 282.116190,88.438042 282.986667,87.965267 283.857143,87.499837 284.727619,87.042156 285.598095,86.592241 286.468571,86.149738 287.339048,85.714142 288.209524,85.285688 289.080000,84.864259 289.950476,84.449788 290.820952,84.042155 291.691429,83.641278 292.561905,83.247021 293.432381,82.859301 294.302857,82.477948 295.173333,82.102895 296.043810,81.734024 296.914286,81.371235 297.784762,81.014410 298.655238,80.663413 299.525714,80.318177 300.396190,79.978601 301.266667,79.644652 302.137143,79.316599 303.007619,78.994037 303.878095,78.676866 304.748571,78.364985 305.619048,78.058292 306.489524,77.756720 307.360000,77.460135 308.230476,77.168468 309.100952,76.881586 309.971429,76.599420 310.841905,76.321837 311.712381,76.048802 312.582857,75.780854 313.453333,75.517522 314.323810,75.258570 315.194286,75.003964 316.064762,74.753603 316.935238,74.507420 317.805714,74.265280 318.676190,74.027149 319.546667,73.792926 320.417143,73.562511 321.287619,73.335835 322.158095,73.112764 323.028571,72.893770 323.899048,72.678920 324.769524,72.467675 325.640000,72.259967 326.510476,72.055730 327.380952,71.854929 328.251429,71.657464 329.121905,71.463267 329.992381,71.272270 330.862857,71.084407 331.733333,70.899576 332.603810,70.717743 333.474286,70.538909 334.344762,70.363748 335.215238,70.191551 336.085714,70.022285 336.956190,69.855883 337.826667,69.692244 338.697143,69.531401 339.567619,69.373220 340.438095,69.217667 341.308571,69.064674 342.179048,68.914208 343.049524,68.766168 343.920000,68.620554 344.790476,68.477770 345.660952,68.337580 346.531429,68.199782 347.401905,68.064343 348.272381,67.931194 349.142857,67.800270 350.013333,67.671568 350.883810,67.545023 351.754286,67.420601 352.624762,67.298200 353.495238,67.177854 354.365714,67.059463 355.236190,66.943093 356.106667,66.828946 356.977143,66.716720 357.847619,66.606381 358.718095,66.497928 359.588571,66.391362 360.459048,66.286548 361.329524,66.183554 362.200000,66.082311 363.070476,65.982787 363.940952,65.884980 364.811429,65.788825 365.681905,65.694321 366.552381,65.601400 367.422857,65.510063 368.293333,65.420309 369.163810,65.332071 370.034286,65.245349 370.904762,65.160110 371.775238,65.076353 372.645714,64.994045 373.516190,64.913118 374.386667,64.833640 375.257143,64.755510 376.127619,64.678727 376.998095,64.603258 377.868571,64.528969 378.739048,64.455993 379.609524,64.384230 380.480000,64.313714 381.350476,64.244377 382.220952,64.176220 383.091429,64.109208 383.961905,64.043375 384.832381,63.978620 385.702857,63.914977 386.573333,63.852412 387.443810,63.790925 388.314286,63.730482 389.184762,63.671051 390.055238,63.612664 390.925714,63.555253 391.796190,63.498820 392.666667,63.443331 393.537143,63.388818 394.407619,63.335249 395.278095,63.282589 396.148571,63.230839 397.019048,63.179965 397.889524,63.130000 398.760000,63.080811 399.630476,63.032464 400.500952,62.984925 401.371429,62.938229 402.241905,62.892341 403.112381,62.847229 403.982857,62.802924 404.853333,62.759395 405.723810,62.716607 406.594286,62.674594 407.464762,62.633288 408.335238,62.592757 409.205714,62.552934 410.076190,62.513852 410.946667,62.475444 411.817143,62.437777 412.687619,62.400784 413.558095,62.364498 414.428571,62.328886 415.299048,62.293948 416.169524,62.259684 417.040000,62.226094 417.910476,62.192908 418.780952,62.160126 419.651429,62.127917 420.521905,62.096281 421.392381,62.065184 422.262857,62.034625 423.133333,62.004640 424.003810,61.975160 424.874286,61.946219 425.744762,61.917784 426.615238,61.889854 427.485714,61.862429 428.356190,61.835509 429.226667,61.809062 430.097143,61.783119 430.967619,61.757648 431.838095,61.732616 432.708571,61.708088 433.579048,61.683999 434.449524,61.660381 435.320000,61.637202 436.190476,61.614460 437.060952,61.592089 437.931429,61.569987 438.801905,61.548256 439.672381,61.526896 440.542857,61.505940 441.413333,61.485321 442.283810,61.465106 443.154286,61.445228 444.024762,61.425687 444.895238,61.406517 445.765714,61.387683 446.636190,61.369187 447.506667,61.351027 448.377143,61.333170 449.247619,61.315685 450.118095,61.298468 450.988571,61.281589 451.859048,61.265013 452.729524,61.248740 453.600000,61.232770 454.470476,61.217104 455.340952,61.201707 456.211429,61.186646 457.081905,61.171687 457.952381,61.157032 458.822857,61.142612 459.693333,61.128428 460.563810,61.114513 461.434286,61.100868 462.304762,61.087425 463.175238,61.074218 464.045714,61.061247 464.916190,61.048512 465.786667,61.036012 466.657143,61.023749 467.527619,61.011653 468.398095,60.999828 469.268571,60.988170 470.139048,60.976749 471.009524,60.965530 471.880000,60.954479 472.750476,60.943664 473.620952,60.933051 474.491429,60.922641 475.361905,60.912398 476.232381,60.902291 477.102857,60.892352 477.973333,60.882582 478.843810,60.872946 479.714286,60.863512 480.584762,60.854247 481.455238,60.845117 482.325714,60.836155 483.196190,60.827361 484.066667,60.818736 484.937143,60.810246 485.807619,60.801891 486.678095,60.793704 487.548571,60.785651 488.419048,60.777734 489.289524,60.769985 490.160000,60.762371 491.030476,60.754891 491.900952,60.747546 492.771429,60.740336 493.641905,60.733295 494.512381,60.726354 495.382857,60.719515 496.253333,60.712743 497.123810,60.706106 497.994286,60.699604 498.864762,60.693168 499.735238,60.686868 500.605714,60.680703 501.476190,60.674604 502.346667,60.668641 503.217143,60.662745 504.087619,60.656984 504.958095,60.651324 505.828571,60.645765 506.699048,60.640307 507.569524,60.634950 508.440000,60.629694 509.310476,60.624505 510.180952,60.619452 511.051429,60.614465 511.921905,60.609580 512.792381,60.604796 513.662857,60.600113 514.533333,60.595497 515.403810,60.590949 516.274286,60.586468 517.144762,60.582088 518.015238,60.577775 518.885714,60.573530 519.756190,60.569386 520.626667,60.565310 521.497143,60.561300 522.367619,60.557358 523.238095,60.553518 524.108571,60.549710 524.979048,60.546004 525.849524,60.542366 526.720000,60.538794 527.590476,60.535291 528.460952,60.531820 529.331429,60.528451 530.201905,60.525149 531.072381,60.521881 531.942857,60.518714 532.813333,60.515581 533.683810,60.512515 534.554286,60.509517 535.424762,60.506552 536.295238,60.503654 537.165714,60.500824 538.036190,60.498062 538.906667,60.495333 539.777143,60.492671 540.647619,60.490043 541.518095,60.487482 542.388571,60.484956 543.259048,60.482496 544.129524,60.480070 545.000000,60.477712 545.870476,60.475387"/>
	<polyline fill="none" stroke="rgb(238,46,47)" stroke-width="1" stroke-opacity="1" clip-path="url(#clipArea1)" points="87.129524,60.336612 88.000000,60.336612 88.870476,60.336612 89.740952,60.336612 90.611429,60.336612 91.481905,60.336612 92.352381,60.336612 93.222857,60.336612 94.093333,60.336612 94.963810,60.336612 95.834286,60.336612 96.704762,60.336612 97.575238,60.336612 98.445714,60.336612 99.316190,60.336612 100.186667,60.336612 101.057143,60.336612 101.927619,60.336612 102.798095,60.336612 103.668571,60.336612 104.539048,60.336612 105.409524,60.336612 106.280000,60.336612 107.150476,60.336612 108.020952,60.336612 108.891429,60.336612 109.761905,60.336612 110.632381,60.336612 111.502857,60.336612 112.373333,60.336612 113.243810,60.336612 114.114286,60.336612 114.984762,60.336612 115.855238,60.336612 116.725714,60.336612 117.596190,60.336612 118.466667,60.336612 119.337143,60.336612 120.207619,60.336612 121.078095,60.336612 121.948571,60.336612 122.819048,60.336612 123.689524,60.336612 124.560000,60.336612 125.430476,60.336612 126.300952,60.336646 127.171429,60.336646 128.041905,60.336646 128.912381,60.336646 129.782857,60.336646 130.653333,60.336646 131.523810,60.336646 132.394286,60.336646 133.264762,60.336646 134.135238,60.336646 135.005714,60.336646 135.876190,60.336646 136.746667,60.336646 137.617143,60.336646 138.487619,60.336646 139.358095,60.336646 140.228571,60.336646 141.099048,60.336646 141.969524,60.336646 142.840000,60.336646 143.710476,60.336646 144.580952,60.336646 145.451429,60.336646 146.321905,60.336646 147.192381,60.336646 148.062857,60.336646 148.933333,60.336646 149.803810,60.336646 150.674286,60.336646 151.544762,60.336646 152.415238,60.336646 153.285714,60.336646 153.285714,60.336646 154.156190,153.268814 155.026667,172.618917 155.897143,180.518424 156.767619,186.303777 157.638095,191.413989 158.271613,194.882687 158.271613,194.882687 158.508571,196.138433 159.379048,200.541007 160.249524,204.695983 161.120000,208.619853 161.990476,212.328552 162.860952,215.836670 163.731429,219.159670 164.601905,222.311552 165.472381,225.304334 166.342857,228.148967 167.213333,230.855928 168.083810,233.434744 168.954286,235.893990 169.824762,238.241581 170.695238,240.484006 171.565714,242.627807 172.436190,244.678350 173.306667,246.640672 174.177143,248.519633 175.047619,250.319588 175.918095,252.044656 176.788571,253.698735 177.659048,255.285432 178.529524,256.808124 179.400000,258.270011 180.270476,259.674066 181.140952,261.023011 182.011429,262.319448 182.881905,263.565811 183.752381,264.764467 184.622857,265.917539 185.493333,267.027081 186.363810,268.095107 187.234286,269.123402 188.104762,270.113736 188.975238,271.067809 189.845714,271.987172 190.716190,272.873323 191.586667,273.727704 192.457143,274.551635 193.327619,275.346424 194.198095,276.113308 195.068571,276.853441 195.939048,277.567934 196.809524,278.257833 197.680000,278.924140 198.550476,279.567755 199.420952,280.189564 200.291429,280.790425 201.161905,281.371130 202.032381,281.932420 202.902857,282.475003 203.773333,282.999823 204.643810,283.507409 205.514286,283.998386 206.384762,284.473359 207.255238,284.932884 208.125714,285.377535 208.996190,285.808044 209.866667,286.224790 210.737143,286.628269 211.607619,287.018955 212.478095,287.397284 213.348571,287.763712 214.219048,288.118760 215.089524,288.462766 215.960000,288.796101 216.830476,289.119142 217.700952,289.432245 218.571429,289.735754 219.441905,290.030040 220.312381,290.315381 221.182857,290.592080 222.053333,290.860424 222.923810,291.120682 223.794286,291.373148 224.664762,291.618101 225.535238,291.855752 226.405714,292.086345 227.276190,292.310098 228.146667,292.527222 229.017143,292.738029 229.887619,292.942713 230.758095,293.141450 231.628571,293.334434 232.499048,293.521851 233.369524,293.703894 234.240000,293.880724 235.110476,294.052516 235.980952,294.219423 236.851429,294.381601 237.721905,294.539197 238.592381,294.692345 239.462857,294.841135 240.333333,294.985726 241.203810,295.126232 242.074286,295.262762 242.944762,295.395430 243.815238,295.524329 244.685714,295.649552 245.556190,295.771191 246.426667,295.889325 247.297143,296.004032 248.167619,296.115374 249.038095,296.223700 249.908571,296.329314 250.779048,296.431976 251.649524,296.531778 252.520000,296.628784 253.390476,296.723074 254.260952,296.814710 255.131429,296.903761 256.001905,296.990285 256.872381,297.074340 257.742857,297.155983 258.613333,297.235263 259.483810,297.312551 260.354286,297.387801 261.224762,297.460966 261.867631,297.513706 261.867631,297.513706 262.095238,297.531996 262.965714,297.600882 263.836190,297.668644 264.706667,297.735429 265.577143,297.801178 266.447619,297.866084 267.318095,297.930136 268.188571,297.993126 269.059048,298.055064 269.929524,298.115914 270.800000,298.175666 271.670476,298.234331 272.540952,298.291918 273.411429,298.348423 274.281905,298.403850 275.152381,298.458228 276.022857,298.511616 276.893333,298.563972 277.763810,298.615297 278.634286,298.665594 279.504762,298.715015 280.375238,298.763472 281.245714,298.810960 282.116190,298.857488 282.986667,298.903173 283.857143,298.948000 284.727619,298.991937 285.598095,299.034987 286.468571,299.077185 287.339048,299.118600 288.209524,299.159211 289.080000,299.199026 289.950476,299.238066 290.820952,299.276343 291.691429,299.313876 292.561905,299.350671 293.432381,299.386750 294.302857,299.422139 295.173333,299.456845 296.043810,299.490886 296.914286,299.524270 297.784762,299.557018 298.655238,299.589147 299.525714,299.620665 300.396190,299.651590 301.266667,299.681921 302.137143,299.711632 303.007619,299.740767 303.878095,299.769346 304.748571,299.797377 305.619048,299.824877 306.489524,299.851852 307.360000,299.878320 308.230476,299.904288 309.100952,299.929776 309.971429,299.954787 310.841905,299.979340 311.712381,300.003446 312.582857,300.027030 313.453333,300.050163 314.323810,300.072855 315.194286,300.095125 316.064762,300.116978 316.935238,300.138426 317.805714,300.159479 318.676190,300.180145 319.546667,300.200440 320.417143,300.220368 321.287619,300.239939 322.158095,300.259168 323.028571,300.278002 323.899048,300.296435 324.769524,300.314523 325.640000,300.332274 326.510476,300.349697 327.380952,300.366799 328.251429,300.383590 329.121905,300.400078 329.992381,300.416267 330.862857,300.432169 331.733333,300.447789 332.603810,300.463136 333.474286,300.478204 334.344762,300.492923 335.215238,300.507368 336.085714,300.521548 336.956190,300.535463 337.826667,300.549125 338.697143,300.562534 339.567619,300.575703 340.438095,300.588632 341.308571,300.601334 342.179048,300.613808 343.049524,300.626063 343.920000,300.638104 344.790476,300.649879 345.660952,300.661427 346.531429,300.672755 347.401905,300.683878 348.272381,300.694798 349.142857,300.705516 350.013333,300.716040 350.883810,300.726371 351.754286,300.736521 352.624762,300.746489 353.495238,300.756276 354.365714,300.765895 355.236190,300.775333 356.106667,300.784581 356.977143,300.793661 357.847619,300.802573 358.718095,300.811320 359.588571,300.819907 360.459048,300.828338 361.329524,300.836618 362.200000,300.844742 363.070476,300.852722 363.940952,300.860555 364.811429,300.868241 365.681905,300.875792 366.552381,300.883200 367.422857,300.890478 368.293333,300.897620 369.163810,300.904632 370.034286,300.911514 370.904762,300.918269 371.775238,300.924902 372.645714,300.931408 373.516190,300.937801 374.386667,300.944068 375.257143,300.950221 376.127619,300.956260 376.998095,300.962194 377.868571,300.968027 378.739048,300.973750 379.609524,300.979372 380.480000,300.984894 381.350476,300.990314 382.220952,300.995637 383.091429,301.000863 383.961905,301.005997 384.832381,301.011034 385.702857,301.015987 386.573333,301.020846 387.443810,301.025618 388.314286,301.030305 389.184762,301.034908 390.055238,301.039432 390.925714,301.043870 391.796190,301.048229 392.666667,301.052508 393.537143,301.056715 394.407619,301.060842 395.278095,301.064894 396.148571,301.068878 397.019048,301.072786 397.889524,301.076623 398.760000,301.080392 399.630476,301.084094 400.500952,301.087728 401.371429,301.091295 402.241905,301.094799 403.112381,301.098236 403.982857,301.101613 404.853333,301.104923 405.723810,301.108175 406.594286,301.111363 407.464762,301.114492 408.335238,301.117562 409.205714,301.120573 410.076190,301.123525 410.946667,301.126419 411.817143,301.129257 412.687619,301.132037 413.558095,301.134757 414.428571,301.137423 415.299048,301.140038 416.169524,301.142595 417.040000,301.145092 417.910476,301.147568 418.780952,301.150015 419.651429,301.152416 420.521905,301.154774 421.392381,301.157086 422.262857,301.159356 423.133333,301.161584 424.003810,301.163770 424.874286,301.165913 425.744762,301.168015 426.615238,301.170078 427.485714,301.172100 428.356190,301.174083 429.226667,301.176029 430.097143,301.177937 430.967619,301.179807 431.838095,301.181639 432.708571,301.183433 433.579048,301.185193 434.449524,301.186916 435.320000,301.188604 436.190476,301.190255 437.060952,301.191881 437.931429,301.193490 438.801905,301.195069 439.672381,301.196619 440.542857,301.198135 441.413333,301.199626 442.283810,301.201091 443.154286,301.202527 444.024762,301.203934 444.895238,301.205315 445.765714,301.206671 446.636190,301.208002 447.506667,301.209304 448.377143,301.210584 449.247619,301.211839 450.118095,301.213069 450.988571,301.214277 451.859048,301.215461 452.729524,301.216619 453.600000,301.217760 454.470476,301.218872 455.340952,301.219967 456.211429,301.221037 457.081905,301.222098 457.952381,301.223138 458.822857,301.224157 459.693333,301.225160 460.563810,301.226145 461.434286,301.227109 462.304762,301.228057 463.175238,301.228988 464.045714,301.229902 464.916190,301.230799 465.786667,301.231679 466.657143,301.232542 467.527619,301.233389 468.398095,301.234218 469.268571,301.235035 470.139048,301.235836 471.009524,301.236619 471.880000,301.237390 472.750476,301.238143 473.620952,301.238885 474.491429,301.239609 475.361905,301.240321 476.232381,301.241024 477.102857,301.241719 477.973333,301.242397 478.843810,301.243062 479.714286,301.243719 480.584762,301.244364 481.455238,301.244991 482.325714,301.245615 483.196190,301.246221 484.066667,301.246819 484.937143,301.247404 485.807619,301.247981 486.678095,301.248546 487.548571,301.249102 488.419048,301.249645 489.289524,301.250175 490.160000,301.250698 491.030476,301.251211 491.900952,301.251717 492.771429,301.252210 493.641905,301.252690 494.512381,301.253166 495.382857,301.253633 496.253333,301.254092 497.123810,301.254547 497.994286,301.254993 498.864762,301.255431 499.735238,301.255861 500.605714,301.256282 501.476190,301.256695 502.346667,301.257103 503.217143,301.257503 504.087619,301.257891 504.958095,301.258278 505.828571,301.258653 506.699048,301.259024 507.569524,301.259386 508.440000,301.259744 509.310476,301.260089 510.180952,301.260430 511.051429,301.260767 511.921905,301.261096 512.792381,301.261416 513.662857,301.261732 514.533333,301.262039 515.403810,301.262346 516.274286,301.262646 517.144762,301.262940 518.015238,301.263227 518.885714,301.263509 519.756190,301.263787 520.626667,301.264061 521.497143,301.264326 522.367619,301.264587 523.238095,301.264844 524.108571,301.265097 524.979048,301.265341 525.849524,301.265581 526.720000,301.265821 527.590476,301.266053 528.460952,301.266280 529.331429,301.266499 530.201905,301.266718 531.072381,301.266933 531.942857,301.267139 532.813333,301.267345 533.683810,301.267548 534.554286,301.267741 535.424762,301.267935 536.295238,301.268120 537.165714,301.268306 538.036190,301.268487 538.906667,301.268664 539.777143,301.268836 540.647619,301.269005 541.518095,301.269169 542.388571,301.269333 543.259048,301.269493 544.129524,301.269645 545.000000,301.269801 545.870476,301.269948"/>
	<rect fill="rgb(255,255,255)" stroke="none" stroke-opacity="0.7" x="88" y="13" width="829" height="28"/>
	<polyline fill="none" stroke="rgb(28,108,200)" stroke-width="1" stroke-opacity="1" points="88.000000,29.000000 118.000000,29.000000"/>
	<text x="123" y="29" fill="rgb(0,0,0)" dominant-baseline="central" font-size="17" font-family="Arial" text-anchor="start">simplestCircWithTissues2_2.o2CO2.pCO2</text>
	<polyline fill="none" stroke="rgb(238,46,47)" stroke-width="1" stroke-opacity="1" points="505.000000,29.000000 535.000000,29.000000"/>
	<text x="540" y="29" fill="rgb(0,0,0)" dominant-baseline="central" font-size="17" font-family="Arial" text-anchor="start">simplestCircWithTissues2_1.o2CO2.pCO2</text>
</svg>
